<?xml version="1.0" encoding="UTF-8"?>
<svg width="60px" height="60px" viewBox="0 0 60 60" version="1.1" xmlns="http://www.w3.org/2000/svg" xmlns:xlink="http://www.w3.org/1999/xlink">
    <title>JSON Storage</title>
    <g stroke="none" stroke-width="1" fill="none" fill-rule="evenodd">
        <rect fill="#FFFFFF" x="0" y="0" width="60" height="60"></rect>
        <g transform="translate(10.000000, 10.000000)">
            <path d="M38,0 L2,0 C0.9,0 0,0.9 0,2 L0,38 C0,39.1 0.9,40 2,40 L38,40 C39.1,40 40,39.1 40,38 L40,2 C40,0.9 39.1,0 38,0 Z" fill="#2196F3" fill-rule="nonzero"></path>
            <path d="M24,28 L6,28 C5.45,28 5,28.45 5,29 L5,32 C5,32.55 5.45,33 6,33 L24,33 C24.55,33 25,32.55 25,32 L25,29 C25,28.45 24.55,28 24,28 Z" fill="#FFFFFF" fill-rule="nonzero"></path>
            <path d="M35,15 L6,15 C5.45,15 5,15.45 5,16 L5,19 C5,19.55 5.45,20 6,20 L35,20 C35.55,20 36,19.55 36,19 L36,16 C36,15.45 35.55,15 35,15 Z" fill="#FFFFFF" fill-rule="nonzero"></path>
            <circle fill="#FFFFFF" cx="10" cy="10" r="4"></circle>
            <circle fill="#FFFFFF" cx="30" cy="30" r="4"></circle>
        </g>
    </g>
</svg>